<?xml version="1.0" encoding="UTF-8" standalone="no"?>
<!-- Created with Inkscape (http://www.inkscape.org/) -->

<svg
   xmlns:dc="http://purl.org/dc/elements/1.1/"
   xmlns:cc="http://creativecommons.org/ns#"
   xmlns:rdf="http://www.w3.org/1999/02/22-rdf-syntax-ns#"
   xmlns:svg="http://www.w3.org/2000/svg"
   xmlns="http://www.w3.org/2000/svg"
   xmlns:sodipodi="http://sodipodi.sourceforge.net/DTD/sodipodi-0.dtd"
   xmlns:inkscape="http://www.inkscape.org/namespaces/inkscape"
   width="210mm"
   height="297mm"
   viewBox="0 0 210 297"
   version="1.1"
   id="svg8"
   inkscape:version="0.92.3 (2405546, 2018-03-11)"
   sodipodi:docname="skull1.svg">
  <defs
     id="defs2">
    <inkscape:path-effect
       effect="bspline"
       id="path-effect848"
       is_visible="true"
       weight="33.333333"
       steps="2"
       helper_size="0"
       apply_no_weight="true"
       apply_with_weight="true"
       only_selected="false" />
    <filter
       inkscape:collect="always"
       style="color-interpolation-filters:sRGB"
       id="filter1411"
       x="-0.06998857"
       width="1.1399771"
       y="-0.052506431"
       height="1.1050129">
      <feGaussianBlur
         inkscape:collect="always"
         stdDeviation="8.1058693"
         id="feGaussianBlur1413" />
    </filter>
    <filter
       inkscape:collect="always"
       style="color-interpolation-filters:sRGB"
       id="filter3347"
       x="-0.089497078"
       width="1.1789942"
       y="-0.071745225"
       height="1.1434904">
      <feGaussianBlur
         inkscape:collect="always"
         stdDeviation="0.61882065"
         id="feGaussianBlur3349" />
    </filter>
    <filter
       inkscape:collect="always"
       style="color-interpolation-filters:sRGB"
       id="filter3351"
       x="-2.4758636"
       width="5.9517272"
       y="-0.22577469"
       height="1.4515494">
      <feGaussianBlur
         inkscape:collect="always"
         stdDeviation="0.53400983"
         id="feGaussianBlur3353" />
    </filter>
    <filter
       inkscape:collect="always"
       style="color-interpolation-filters:sRGB"
       id="filter3355"
       x="-1.2363127"
       width="3.4726255"
       y="-0.27750982"
       height="1.5550196">
      <feGaussianBlur
         inkscape:collect="always"
         stdDeviation="0.53400983"
         id="feGaussianBlur3357" />
    </filter>
    <filter
       inkscape:collect="always"
       style="color-interpolation-filters:sRGB"
       id="filter3359"
       x="-1.1261182"
       width="3.2522364"
       y="-0.25558557"
       height="1.5111711">
      <feGaussianBlur
         inkscape:collect="always"
         stdDeviation="0.53400983"
         id="feGaussianBlur3361" />
    </filter>
    <filter
       inkscape:collect="always"
       style="color-interpolation-filters:sRGB"
       id="filter3363"
       x="-1.1708736"
       width="3.3417471"
       y="-0.21719931"
       height="1.4343986">
      <feGaussianBlur
         inkscape:collect="always"
         stdDeviation="0.53400983"
         id="feGaussianBlur3365" />
    </filter>
    <filter
       inkscape:collect="always"
       style="color-interpolation-filters:sRGB"
       id="filter3367"
       x="-1.1024075"
       width="3.2048149"
       y="-0.20491715"
       height="1.4098343">
      <feGaussianBlur
         inkscape:collect="always"
         stdDeviation="0.53400983"
         id="feGaussianBlur3369" />
    </filter>
    <filter
       inkscape:collect="always"
       style="color-interpolation-filters:sRGB"
       id="filter3371"
       x="-1.6538655"
       width="4.307731"
       y="-0.27051656"
       height="1.5410331">
      <feGaussianBlur
         inkscape:collect="always"
         stdDeviation="0.53400983"
         id="feGaussianBlur3373" />
    </filter>
    <filter
       inkscape:collect="always"
       style="color-interpolation-filters:sRGB"
       id="filter3375"
       x="-0.85210372"
       width="2.7042074"
       y="-0.2667374"
       height="1.5334748">
      <feGaussianBlur
         inkscape:collect="always"
         stdDeviation="0.53400983"
         id="feGaussianBlur3377" />
    </filter>
    <filter
       inkscape:collect="always"
       style="color-interpolation-filters:sRGB"
       id="filter3379"
       x="-0.32261257"
       width="1.6452251"
       y="-0.23480442"
       height="1.4696088">
      <feGaussianBlur
         inkscape:collect="always"
         stdDeviation="0.53400983"
         id="feGaussianBlur3381" />
    </filter>
    <filter
       inkscape:collect="always"
       style="color-interpolation-filters:sRGB"
       id="filter3383"
       x="-12.290215"
       width="25.58043"
       y="-0.38434794"
       height="1.7686959">
      <feGaussianBlur
         inkscape:collect="always"
         stdDeviation="0.53400983"
         id="feGaussianBlur3385" />
    </filter>
    <filter
       inkscape:collect="always"
       style="color-interpolation-filters:sRGB"
       id="filter3387"
       x="-0.32138133"
       width="1.6427627"
       y="-0.29718395"
       height="1.5943679">
      <feGaussianBlur
         inkscape:collect="always"
         stdDeviation="0.53400983"
         id="feGaussianBlur3389" />
    </filter>
    <filter
       inkscape:collect="always"
       style="color-interpolation-filters:sRGB"
       id="filter3391"
       x="-3.0224649"
       width="7.0449298"
       y="-0.18205372"
       height="1.3641074">
      <feGaussianBlur
         inkscape:collect="always"
         stdDeviation="0.53400983"
         id="feGaussianBlur3393" />
    </filter>
    <filter
       inkscape:collect="always"
       style="color-interpolation-filters:sRGB"
       id="filter3395"
       x="-1.5045261"
       width="4.0090523"
       y="-0.19236714"
       height="1.3847343">
      <feGaussianBlur
         inkscape:collect="always"
         stdDeviation="0.53400983"
         id="feGaussianBlur3397" />
    </filter>
    <filter
       inkscape:collect="always"
       style="color-interpolation-filters:sRGB"
       id="filter3399"
       x="-1.1902127"
       width="3.3804253"
       y="-0.16942"
       height="1.33884">
      <feGaussianBlur
         inkscape:collect="always"
         stdDeviation="0.53400983"
         id="feGaussianBlur3401" />
    </filter>
    <filter
       inkscape:collect="always"
       style="color-interpolation-filters:sRGB"
       id="filter3403"
       x="-2.3783441"
       width="5.7566883"
       y="-0.18579452"
       height="1.371589">
      <feGaussianBlur
         inkscape:collect="always"
         stdDeviation="0.53400983"
         id="feGaussianBlur3405" />
    </filter>
    <filter
       inkscape:collect="always"
       style="color-interpolation-filters:sRGB"
       id="filter3407"
       x="-2.6511397"
       width="6.3022793"
       y="-0.19375737"
       height="1.3875147">
      <feGaussianBlur
         inkscape:collect="always"
         stdDeviation="0.53400983"
         id="feGaussianBlur3409" />
    </filter>
    <filter
       inkscape:collect="always"
       style="color-interpolation-filters:sRGB"
       id="filter3411"
       x="-2.2571533"
       width="5.5143066"
       y="-0.18083995"
       height="1.3616799">
      <feGaussianBlur
         inkscape:collect="always"
         stdDeviation="0.53400983"
         id="feGaussianBlur3413" />
    </filter>
    <filter
       inkscape:collect="always"
       style="color-interpolation-filters:sRGB"
       id="filter3415"
       x="-3.0493916"
       width="7.0987831"
       y="-0.20866144"
       height="1.4173229">
      <feGaussianBlur
         inkscape:collect="always"
         stdDeviation="0.53400983"
         id="feGaussianBlur3417" />
    </filter>
    <filter
       inkscape:collect="always"
       style="color-interpolation-filters:sRGB"
       id="filter3419"
       x="-3.0493916"
       width="7.0987831"
       y="-0.20866144"
       height="1.4173229">
      <feGaussianBlur
         inkscape:collect="always"
         stdDeviation="0.53400983"
         id="feGaussianBlur3421" />
    </filter>
    <filter
       inkscape:collect="always"
       style="color-interpolation-filters:sRGB"
       id="filter3423"
       x="-0.08195174"
       width="1.1639035"
       y="-13.562154"
       height="28.124309">
      <feGaussianBlur
         inkscape:collect="always"
         stdDeviation="0.53400983"
         id="feGaussianBlur3425" />
    </filter>
    <filter
       inkscape:collect="always"
       style="color-interpolation-filters:sRGB"
       id="filter3427"
       x="-0.15461378"
       width="1.3092276"
       y="-0.64725996"
       height="2.2945199">
      <feGaussianBlur
         inkscape:collect="always"
         stdDeviation="0.53400983"
         id="feGaussianBlur3429" />
    </filter>
    <filter
       inkscape:collect="always"
       style="color-interpolation-filters:sRGB"
       id="filter3431"
       x="-0.15461377"
       width="1.3092275"
       y="-0.64725996"
       height="2.2945199">
      <feGaussianBlur
         inkscape:collect="always"
         stdDeviation="0.53400983"
         id="feGaussianBlur3433" />
    </filter>
    <filter
       inkscape:collect="always"
       style="color-interpolation-filters:sRGB"
       id="filter3435"
       x="-0.037201133"
       width="1.0744023"
       y="-0.089456856"
       height="1.1789137">
      <feGaussianBlur
         inkscape:collect="always"
         stdDeviation="0.53400983"
         id="feGaussianBlur3437" />
    </filter>
    <filter
       inkscape:collect="always"
       style="color-interpolation-filters:sRGB"
       id="filter3439"
       x="-0.094572242"
       width="1.1891445"
       y="-0.080887958"
       height="1.1617759">
      <feGaussianBlur
         inkscape:collect="always"
         stdDeviation="0.53400983"
         id="feGaussianBlur3441" />
    </filter>
    <filter
       inkscape:collect="always"
       style="color-interpolation-filters:sRGB"
       id="filter3443"
       x="-0.095390579"
       width="1.1907812"
       y="-0.070570373"
       height="1.1411407">
      <feGaussianBlur
         inkscape:collect="always"
         stdDeviation="0.53400983"
         id="feGaussianBlur3445" />
    </filter>
    <filter
       inkscape:collect="always"
       style="color-interpolation-filters:sRGB"
       id="filter3447"
       x="-0.089497078"
       width="1.1789942"
       y="-0.071745225"
       height="1.1434904">
      <feGaussianBlur
         inkscape:collect="always"
         stdDeviation="0.61882065"
         id="feGaussianBlur3449" />
    </filter>
  </defs>
  <sodipodi:namedview
     id="base"
     pagecolor="#ffffff"
     bordercolor="#666666"
     borderopacity="1.0"
     inkscape:pageopacity="0.0"
     inkscape:pageshadow="2"
     inkscape:zoom="0.25"
     inkscape:cx="-781.63224"
     inkscape:cy="222.46573"
     inkscape:document-units="mm"
     inkscape:current-layer="layer1"
     showgrid="false"
     inkscape:window-width="1856"
     inkscape:window-height="1057"
     inkscape:window-x="56"
     inkscape:window-y="-8"
     inkscape:window-maximized="1" />
  <metadata
     id="metadata5">
    <rdf:RDF>
      <cc:Work
         rdf:about="">
        <dc:format>image/svg+xml</dc:format>
        <dc:type
           rdf:resource="http://purl.org/dc/dcmitype/StillImage" />
        <dc:title></dc:title>
      </cc:Work>
    </rdf:RDF>
  </metadata>
  <g
     inkscape:label="Layer 1"
     inkscape:groupmode="layer"
     id="layer1">
    <rect
       style="opacity:1;fill:#000000;fill-opacity:1;fill-rule:nonzero;stroke:none;stroke-width:6.47514009;stroke-linejoin:round;stroke-miterlimit:4;stroke-dasharray:none;stroke-dashoffset:0;stroke-opacity:1"
       id="rect1417"
       width="209.57903"
       height="296.16953"
       x="0.71296096"
       y="0.92746532" />
    <path
       id="path1312"
       d="m 110.46872,112.24731 c 17.47008,0.0182 35.11671,11.49199 36.82031,34.4668 0.32865,8.29734 -1.12743,22.47144 -5.23633,29.48828 l -0.0508,0.0859 0.0215,0.0976 c 0.5421,2.28675 -0.0909,5.14695 -1.05274,7.04297 -0.48094,0.94801 -1.05211,1.64921 -1.52539,1.91797 -0.23664,0.13438 -0.43046,0.1639 -0.60351,0.11133 -0.17306,-0.0526 -0.35562,-0.20046 -0.53321,-0.51953 l -0.3164,-0.56641 -0.14649,0.63281 c 0,0 -0.47805,2.05567 -0.50195,4.61329 -0.0235,2.51779 0.39765,5.53533 2.1914,7.59765 -0.0438,1.72316 -0.31557,3.2553 -0.96289,4.47266 -1.45802,-0.63703 -2.72384,-0.66194 -3.78515,-0.18555 -1.12141,0.50336 -2.02802,1.47283 -2.85938,2.58398 -1.28314,1.37537 -2.3763,2.72403 -5.07812,3.63477 -2.70182,0.91074 -7.02985,1.36668 -14.69922,0.83008 l -0.0391,-0.004 -0.0371,0.01 c -9.41816,2.25798 -19.605161,-0.88028 -23.861331,-8.28906 0.0179,-0.0399 0.049,-0.0622 0.043,-0.1211 -0.0118,-0.11577 -0.0989,-0.19651 -0.15625,-0.22851 -0.0573,-0.032 -0.10379,-0.0421 -0.15235,-0.0508 -0.19423,-0.0348 -0.44274,-0.0187 -0.79492,0.0254 -0.63378,0.0793 -1.62194,0.31351 -2.69922,0.63867 -0.28596,-1.00156 -0.26211,-2.0158 -0.16601,-3.07032 1.41065,-2.97202 1.64467,-6.89791 1.55078,-9.96874 -0.0474,-1.54877 -0.17793,-2.87804 -0.2832,-3.74805 -0.0356,-0.29452 -0.058,-0.45054 -0.084,-0.63086 l 0.0117,0.002 -0.0527,-0.30273 c -0.005,-0.0352 -0.006,-0.0399 -0.01,-0.0625 -0.001,-0.008 -0.003,-0.0104 -0.004,-0.0176 -0.004,-0.024 -0.009,-0.0637 -0.0117,-0.0762 -3.1e-4,-0.002 -10e-4,-0.005 -0.002,-0.008 -6.8e-4,-0.003 -0.0136,-0.0449 -0.0137,-0.0449 -2e-5,-4e-5 -0.16191,0.0404 -0.30273,0.0762 l 0.13867,-0.13282 c -1.6757,-0.36023 -2.75778,-0.9857 -3.48438,-1.74804 -0.72659,-0.76235 -1.10396,-1.67138 -1.33203,-2.62696 -0.22807,-0.95558 -0.30082,-1.95183 -0.42187,-2.86718 -0.1176,-0.88923 -0.29364,-1.69707 -0.73242,-2.32618 l 0.0117,-0.004 c -5.62342,-15.61057 -4.3015,-15.94144 -4.42578,-26.26953 0.45655,-11.52391 4.99873,-20.12843 11.60547,-25.86524 6.60674,-5.73681 15.288401,-8.60287 24.023441,-8.59375 z"
       style="color:#000000;font-style:normal;font-variant:normal;font-weight:normal;font-stretch:normal;font-size:medium;line-height:normal;font-family:sans-serif;font-variant-ligatures:normal;font-variant-position:normal;font-variant-caps:normal;font-variant-numeric:normal;font-variant-alternates:normal;font-feature-settings:normal;text-indent:0;text-align:start;text-decoration:none;text-decoration-line:none;text-decoration-style:solid;text-decoration-color:#000000;letter-spacing:normal;word-spacing:normal;text-transform:none;writing-mode:lr-tb;direction:ltr;text-orientation:mixed;dominant-baseline:auto;baseline-shift:baseline;text-anchor:start;white-space:normal;shape-padding:0;clip-rule:nonzero;display:inline;overflow:visible;visibility:visible;opacity:1;isolation:auto;mix-blend-mode:normal;color-interpolation:sRGB;color-interpolation-filters:linearRGB;solid-color:#000000;solid-opacity:1;vector-effect:none;fill:#000000;fill-opacity:1;fill-rule:nonzero;stroke:none;stroke-width:0.5;stroke-linecap:butt;stroke-linejoin:miter;stroke-miterlimit:4;stroke-dasharray:none;stroke-dashoffset:0;stroke-opacity:1;color-rendering:auto;image-rendering:auto;shape-rendering:auto;text-rendering:auto;enable-background:accumulate"
       inkscape:connector-curvature="0" />
    <path
       style="color:#000000;font-style:normal;font-variant:normal;font-weight:normal;font-stretch:normal;font-size:medium;line-height:normal;font-family:sans-serif;font-variant-ligatures:normal;font-variant-position:normal;font-variant-caps:normal;font-variant-numeric:normal;font-variant-alternates:normal;font-feature-settings:normal;text-indent:0;text-align:start;text-decoration:none;text-decoration-line:none;text-decoration-style:solid;text-decoration-color:#000000;letter-spacing:normal;word-spacing:normal;text-transform:none;writing-mode:lr-tb;direction:ltr;text-orientation:mixed;dominant-baseline:auto;baseline-shift:baseline;text-anchor:start;white-space:normal;shape-padding:0;clip-rule:nonzero;display:inline;overflow:visible;visibility:visible;opacity:1;isolation:auto;mix-blend-mode:normal;color-interpolation:sRGB;color-interpolation-filters:linearRGB;solid-color:#000000;solid-opacity:1;vector-effect:none;fill:#ff0000;fill-opacity:1;fill-rule:nonzero;stroke:#ffffff;stroke-width:13.98425198;stroke-linecap:butt;stroke-linejoin:miter;stroke-miterlimit:4;stroke-dasharray:none;stroke-dashoffset:0;stroke-opacity:1;filter:url(#filter1411);color-rendering:auto;image-rendering:auto;shape-rendering:auto;text-rendering:auto;enable-background:accumulate"
       d="m -730.82227,330.42773 c -33.42875,-0.0348 -66.68332,10.92213 -92.03711,32.9375 -25.35382,22.01536 -42.76799,55.10327 -44.51171,99.11719 v 0.0234 0.0293 c 0.47395,38.93669 -4.46296,40.82027 16.83789,99.95117 l 0.88476,-0.31641 -0.75195,0.55274 c 1.41188,1.91497 2.04744,4.79407 2.49414,8.17187 0.4467,3.37777 0.72169,7.22573 1.63086,11.03516 0.9092,3.80942 2.46903,7.60471 5.50781,10.79297 2.92006,3.06376 7.29082,5.47438 13.48633,6.92382 0.1028,0.67794 0.2445,1.66444 0.42187,3.13086 0.39255,3.24401 0.87792,8.20701 1.05469,13.98828 0.35339,11.56252 -0.55748,26.39497 -5.75781,37.13086 l -0.0742,0.1543 -0.0215,0.16992 c -0.39088,4.28928 -0.7818,8.73581 0.76758,13.25 l 0.29492,0.8711 0.88476,-0.2793 c 4.56042,-1.45935 8.50457,-2.2932 11,-2.60547 0.89991,-0.11263 1.31997,-0.0903 1.75586,-0.082 l 0.0605,0.11133 c 16.42783,29.24262 55.99092,41.38093 92.43555,32.70117 29.0016,2.01778 45.56825,0.33609 56.15429,-3.23242 10.60728,-3.57555 15.17828,-9.09136 19.97461,-14.23242 l 0.0312,-0.0449 0.0371,-0.0371 c 3.07839,-4.12686 6.34663,-7.55314 10.12695,-9.25 3.78033,-1.69685 8.10003,-1.78441 13.70118,0.94532 l 0.79101,0.39062 0.44141,-0.76758 c 2.9639,-5.17436 3.99407,-11.65142 4.15039,-18.70507 l 0.006,-0.37696 -0.25,-0.27343 c -6.51511,-7.20095 -8.14876,-18.40317 -8.06055,-27.84375 0.0797,-8.51513 1.37832,-14.06359 1.66016,-15.35547 0.52255,0.48098 0.94162,1.23657 1.56445,1.42578 1.24411,0.37795 2.55883,0.0967 3.75781,-0.58399 2.39789,-1.36172 4.61212,-4.26769 6.52539,-8.03906 3.77333,-7.43784 6.18708,-18.28976 4.14258,-27.50391 15.88218,-27.38086 21.19196,-80.6559 19.9375,-112.2207 v -0.0137 -0.0156 c -6.50668,-87.74925 -74.19523,-131.95563 -141.05273,-132.02539 z m -0.002,1.88868 0.002,0.002 c 66.02865,0.0689 132.72526,43.43368 139.16407,130.26758 1.24214,31.36002 -4.26132,84.93083 -19.79102,111.45117 l -0.1914,0.32617 0.0801,0.36719 c 2.04889,8.64283 -0.34321,19.45308 -3.97851,26.61914 -1.81773,3.58303 -3.97685,6.23421 -5.76563,7.25 -0.89438,0.50789 -1.6272,0.61861 -2.28125,0.41992 -0.65408,-0.1988 -1.34246,-0.75696 -2.01367,-1.96289 l -1.19727,-2.14062 -0.55273,2.39257 c 0,0 -1.80811,7.76896 -1.89844,17.43555 -0.0888,9.51606 1.50368,20.92025 8.28321,28.71484 -0.16555,6.51274 -1.19211,12.30326 -3.63868,16.9043 -5.51062,-2.40767 -10.29539,-2.5017 -14.30664,-0.70117 -4.2384,1.90246 -7.66449,5.56796 -10.80664,9.76758 -4.84966,5.19825 -8.98175,10.29416 -19.19336,13.73633 -10.2116,3.44216 -26.57004,5.16676 -55.55664,3.13867 l -0.14648,-0.0156 -0.14063,0.0371 c -35.59619,8.5341 -74.09923,-3.32643 -90.18554,-31.32812 0.0676,-0.15081 0.18674,-0.23442 0.16406,-0.45703 -0.0446,-0.43756 -0.37504,-0.74429 -0.5918,-0.86524 -0.21656,-0.12094 -0.39264,-0.15852 -0.57617,-0.1914 -0.7341,-0.13153 -1.67283,-0.071 -3.00391,0.0957 -2.39538,0.29971 -6.12956,1.18511 -10.20117,2.41406 -1.08079,-3.78542 -0.99016,-7.61793 -0.62695,-11.60352 5.33159,-11.23283 6.21619,-26.07144 5.86133,-37.67773 -0.17915,-5.85362 -0.67244,-10.87779 -1.07032,-14.16601 -0.13455,-1.11315 -0.22009,-1.70325 -0.31835,-2.38477 l 0.0449,0.008 -0.19922,-1.14453 c -0.0189,-0.13304 -0.024,-0.15091 -0.0391,-0.23633 -0.004,-0.0302 -0.01,-0.0392 -0.0137,-0.0664 -0.0151,-0.0907 -0.0347,-0.23987 -0.0449,-0.28711 -10e-4,-0.008 -0.004,-0.0199 -0.008,-0.0312 -0.003,-0.0113 -0.0504,-0.16992 -0.0508,-0.16992 -8e-5,-1.6e-4 -0.6123,0.15375 -1.14453,0.28906 l 0.52343,-0.50196 c -6.33335,-1.36149 -10.42371,-3.72613 -13.16992,-6.60742 -2.74616,-2.88132 -4.1712,-6.31609 -5.0332,-9.92773 -0.862,-3.61164 -1.13819,-7.3783 -1.5957,-10.83789 -0.44448,-3.36087 -1.1092,-6.41328 -2.76758,-8.79102 l 0.0449,-0.0156 c -21.25387,-59.00058 -16.2588,-60.24986 -16.72852,-99.28516 1.72555,-43.55493 18.89293,-76.07734 43.86329,-97.75976 24.97035,-21.68242 57.78255,-32.51492 90.79687,-32.48047 z"
       transform="matrix(0.26458333,0,0,0.26458333,303.832,24.321527)"
       id="path1249"
       inkscape:connector-curvature="0" />
    <path
       sodipodi:type="spiral"
       style="fill:none;fill-rule:evenodd;stroke:#ffffff;stroke-width:1.65479326;stroke-miterlimit:4;stroke-dasharray:none;filter:url(#filter3447)"
       id="path882"
       sodipodi:cx="-175.19518"
       sodipodi:cy="127.19716"
       sodipodi:expansion="1"
       sodipodi:revolution="3"
       sodipodi:radius="10.303752"
       sodipodi:argument="-18.091673"
       sodipodi:t0="0"
       d="m -175.19518,127.19716 c 0.37522,0.35511 -0.29356,0.68098 -0.59022,0.62363 -0.80391,-0.15542 -0.96052,-1.17534 -0.65703,-1.80407 0.54287,-1.12466 2.02827,-1.29554 3.01792,-0.69045 1.45234,0.888 1.6401,2.89265 0.72385,4.23177 -1.22122,1.78485 -3.76105,1.98871 -5.44562,0.75726 -2.11985,-1.54965 -2.3394,-4.63138 -0.79067,-6.65947 1.87573,-2.45628 5.5028,-2.6913 7.87332,-0.82407 2.79358,2.20046 3.04396,6.37488 0.85748,9.08716 -2.52437,3.13145 -7.24741,3.39713 -10.30101,0.89089 -3.4697,-2.84774 -3.75065,-8.12026 -0.9243,-11.51486 3.17074,-3.80822 8.99335,-4.10442 12.72871,-0.9577 4.14697,3.49345 4.4584,9.8666 0.99112,13.94256"
       transform="matrix(0.86431921,0.50294364,-0.37453139,0.64364007,327.02707,157.12006)" />
    <path
       style="fill:#666666;stroke:#000000;stroke-width:0.5;stroke-linecap:butt;stroke-linejoin:miter;stroke-miterlimit:4;stroke-dasharray:none;stroke-opacity:1;filter:url(#filter3443)"
       d="m 128.35655,191.01424 c 4.07297,-5.28076 9.16541,-6.48361 11.63923,-18.16093 -11.80362,0.67777 -14.20285,4.22909 -13.24562,8.80601"
       id="path948"
       inkscape:connector-curvature="0"
       sodipodi:nodetypes="ccc" />
    <path
       style="fill:#808080;stroke:#000000;stroke-width:0.5;stroke-linecap:butt;stroke-linejoin:miter;stroke-miterlimit:4;stroke-dasharray:none;stroke-opacity:1;filter:url(#filter3439)"
       d="m 93.960719,187.89593 c -10.67691,-9.9329 -11.95221,-13.28468 -12.09606,-15.84443 6.53644,1.15155 14.69357,0.96426 13.41898,8.56839"
       id="path944"
       inkscape:connector-curvature="0"
       sodipodi:nodetypes="ccc" />
    <path
       style="fill:#ffffff;stroke:#000000;stroke-width:0.5;stroke-linecap:butt;stroke-linejoin:miter;stroke-miterlimit:4;stroke-dasharray:none;stroke-opacity:1;filter:url(#filter3435)"
       d="m 126.75016,181.65932 c 2.05784,0.9516 -10e-4,6.7215 1.60639,9.35492 -6.34898,3.48721 -8.32287,-0.58112 -16.06398,0.37797 -5.17396,-1.05313 -14.302041,3.81969 -18.331851,-3.49628 -0.38648,-0.18711 1.37897,-6.04627 1.32292,-7.27604 15.672281,-3.81017 23.916341,-3.08586 31.466521,1.03943"
       id="path892"
       inkscape:connector-curvature="0"
       sodipodi:nodetypes="cccccc" />
    <path
       style="fill:none;stroke:#000000;stroke-width:0.5;stroke-linecap:butt;stroke-linejoin:miter;stroke-miterlimit:4;stroke-dasharray:none;stroke-opacity:1;filter:url(#filter3431)"
       d="m 95.472629,184.77763 c -0.44127,1.31469 6.207641,3.19836 8.268231,0.89769"
       id="path894"
       inkscape:connector-curvature="0"
       sodipodi:nodetypes="cc" />
    <path
       sodipodi:nodetypes="cc"
       inkscape:connector-curvature="0"
       id="path896"
       d="m 119.37962,185.76982 c -0.44127,1.31469 6.20764,3.19836 8.26823,0.89769"
       style="fill:none;stroke:#000000;stroke-width:0.5;stroke-linecap:butt;stroke-linejoin:miter;stroke-miterlimit:4;stroke-dasharray:none;stroke-opacity:1;filter:url(#filter3427)" />
    <path
       style="fill:none;stroke:#000000;stroke-width:0.5;stroke-linecap:butt;stroke-linejoin:miter;stroke-miterlimit:4;stroke-dasharray:none;stroke-opacity:1;filter:url(#filter3423)"
       d="m 103.74086,185.67532 15.63876,0.0945"
       id="path898"
       inkscape:connector-curvature="0" />
    <path
       style="fill:none;stroke:#000000;stroke-width:0.5;stroke-linecap:butt;stroke-linejoin:miter;stroke-miterlimit:4;stroke-dasharray:none;stroke-opacity:1;filter:url(#filter3419)"
       d="m 97.740489,180.10017 c -0.30632,2.00515 -0.58554,4.01368 0.0945,6.14212"
       id="path900"
       inkscape:connector-curvature="0"
       sodipodi:nodetypes="cc" />
    <path
       sodipodi:nodetypes="cc"
       inkscape:connector-curvature="0"
       id="path902"
       d="m 97.740489,180.10017 c -0.30632,2.00515 -0.58554,4.01368 0.0945,6.14212"
       style="fill:none;stroke:#000000;stroke-width:0.5;stroke-linecap:butt;stroke-linejoin:miter;stroke-miterlimit:4;stroke-dasharray:none;stroke-opacity:1;filter:url(#filter3415)" />
    <path
       style="fill:none;stroke:#000000;stroke-width:0.5;stroke-linecap:butt;stroke-linejoin:miter;stroke-miterlimit:4;stroke-dasharray:none;stroke-opacity:1;filter:url(#filter3411)"
       d="m 100.10284,179.6277 c -0.563561,2.36235 -0.928861,4.72471 0,7.08706"
       id="path904"
       inkscape:connector-curvature="0"
       sodipodi:nodetypes="cc" />
    <path
       style="fill:none;stroke:#000000;stroke-width:0.5;stroke-linecap:butt;stroke-linejoin:miter;stroke-miterlimit:4;stroke-dasharray:none;stroke-opacity:1;filter:url(#filter3407)"
       d="m 103.41013,179.06074 c -0.12928,2.20486 -0.38652,4.40972 0.33073,6.61458"
       id="path908"
       inkscape:connector-curvature="0"
       sodipodi:nodetypes="cc" />
    <path
       style="fill:none;stroke:#000000;stroke-width:0.5;stroke-linecap:butt;stroke-linejoin:miter;stroke-miterlimit:4;stroke-dasharray:none;stroke-opacity:1;filter:url(#filter3403)"
       d="m 119.37962,185.76982 c 0.98325,-3.65945 0.38521,-4.6711 0.0472,-6.89807"
       id="path910"
       inkscape:connector-curvature="0"
       sodipodi:nodetypes="cc" />
    <path
       style="fill:none;stroke:#000000;stroke-width:0.5;stroke-linecap:butt;stroke-linejoin:miter;stroke-miterlimit:4;stroke-dasharray:none;stroke-opacity:1;filter:url(#filter3399)"
       d="m 121.88371,187.32897 c 1.52011,-0.49652 1.1746,-7.78765 0.51972,-7.55953"
       id="path912"
       inkscape:connector-curvature="0"
       sodipodi:nodetypes="cc" />
    <path
       style="fill:none;stroke:#000000;stroke-width:0.5;stroke-linecap:butt;stroke-linejoin:miter;stroke-miterlimit:4;stroke-dasharray:none;stroke-opacity:1;filter:url(#filter3395)"
       d="m 124.81303,187.6597 c 1.23126,-0.50444 0.88055,-6.72984 0.47247,-6.66183"
       id="path914"
       inkscape:connector-curvature="0"
       sodipodi:nodetypes="cc" />
    <path
       style="fill:none;stroke:#000000;stroke-width:0.5;stroke-linecap:butt;stroke-linejoin:miter;stroke-miterlimit:4;stroke-dasharray:none;stroke-opacity:1;filter:url(#filter3391)"
       d="m 106.71742,178.58827 c -0.39346,2.29358 -0.51659,4.62089 0.0945,7.03981"
       id="path918"
       inkscape:connector-curvature="0"
       sodipodi:nodetypes="cc" />
    <path
       style="fill:none;stroke:#000000;stroke-width:0.5;stroke-linecap:butt;stroke-linejoin:miter;stroke-miterlimit:4;stroke-dasharray:none;stroke-opacity:1;filter:url(#filter3387)"
       d="m 109.93022,178.25722 c -0.61993,0.28746 1.19094,3.72893 2.03162,4.12389 0.88767,-1.32681 2.16495,-2.51218 1.74814,-4.31256"
       id="path920"
       inkscape:connector-curvature="0"
       sodipodi:nodetypes="ccc" />
    <path
       style="fill:none;stroke:#000000;stroke-width:0.5;stroke-linecap:butt;stroke-linejoin:miter;stroke-miterlimit:4;stroke-dasharray:none;stroke-opacity:1;filter:url(#filter3383)"
       d="m 111.96184,182.38111 0.10428,3.33454"
       id="path924"
       inkscape:connector-curvature="0" />
    <path
       style="fill:none;stroke:#000000;stroke-width:0.5;stroke-linecap:butt;stroke-linejoin:miter;stroke-miterlimit:4;stroke-dasharray:none;stroke-opacity:1;filter:url(#filter3379)"
       d="m 119.37962,185.76982 c -1.04,1.94574 -1.4505,4.17125 -3.97264,5.45826"
       id="path926"
       inkscape:connector-curvature="0"
       sodipodi:nodetypes="cc" />
    <path
       style="fill:none;stroke:#000000;stroke-width:0.5;stroke-linecap:butt;stroke-linejoin:miter;stroke-miterlimit:4;stroke-dasharray:none;stroke-opacity:1;filter:url(#filter3375)"
       d="m 121.88371,187.32897 c 1.02578,1.14049 -0.30339,4.93914 -1.13133,4.80115"
       id="path928"
       inkscape:connector-curvature="0"
       sodipodi:nodetypes="cc" />
    <path
       style="fill:none;stroke:#000000;stroke-width:0.5;stroke-linecap:butt;stroke-linejoin:miter;stroke-miterlimit:4;stroke-dasharray:none;stroke-opacity:1;filter:url(#filter3371)"
       d="m 124.81303,187.6597 c 1.25392,0.61436 0.72736,4.67749 0.21566,4.73769"
       id="path930"
       inkscape:connector-curvature="0"
       sodipodi:nodetypes="cc" />
    <path
       style="fill:none;stroke:#000000;stroke-width:0.5;stroke-linecap:butt;stroke-linejoin:miter;stroke-miterlimit:4;stroke-dasharray:none;stroke-opacity:1;filter:url(#filter3367)"
       d="m 103.74086,185.67532 c -0.60972,2.04773 -1.72086,4.03975 -0.82873,6.25435"
       id="path932"
       inkscape:connector-curvature="0"
       sodipodi:nodetypes="cc" />
    <path
       style="fill:none;stroke:#000000;stroke-width:0.5;stroke-linecap:butt;stroke-linejoin:miter;stroke-miterlimit:4;stroke-dasharray:none;stroke-opacity:1;filter:url(#filter3363)"
       d="m 106.81192,185.62808 c -0.56555,1.89249 -1.54603,3.67433 -0.85959,5.90068"
       id="path934"
       inkscape:connector-curvature="0"
       sodipodi:nodetypes="cc" />
    <path
       style="fill:none;stroke:#000000;stroke-width:0.5;stroke-linecap:butt;stroke-linejoin:miter;stroke-miterlimit:4;stroke-dasharray:none;stroke-opacity:1;filter:url(#filter3359)"
       d="m 100.10284,186.71476 c -0.885511,1.28372 -1.717921,2.59746 -0.598391,5.01446"
       id="path936"
       inkscape:connector-curvature="0"
       sodipodi:nodetypes="cc" />
    <path
       style="fill:none;stroke:#000000;stroke-width:0.5;stroke-linecap:butt;stroke-linejoin:miter;stroke-miterlimit:4;stroke-dasharray:none;stroke-opacity:1;filter:url(#filter3355)"
       d="m 97.834989,186.24229 c -0.65859,1.27228 -0.9164,2.81148 -1.03665,4.6183"
       id="path938"
       inkscape:connector-curvature="0"
       sodipodi:nodetypes="cc" />
    <path
       style="fill:none;stroke:#000000;stroke-width:0.5;stroke-linecap:butt;stroke-linejoin:miter;stroke-miterlimit:4;stroke-dasharray:none;stroke-opacity:1;filter:url(#filter3351)"
       d="m 112.06612,185.71565 c 0.20769,1.7114 0.90773,2.74953 0.22645,5.67656"
       id="path940"
       inkscape:connector-curvature="0"
       sodipodi:nodetypes="cc" />
    <path
       transform="matrix(-0.86431921,0.50294364,0.37453139,0.64364007,-103.69995,157.12006)"
       d="m -175.19518,127.19716 c 0.37522,0.35511 -0.29356,0.68098 -0.59022,0.62363 -0.80391,-0.15542 -0.96052,-1.17534 -0.65703,-1.80407 0.54287,-1.12466 2.02827,-1.29554 3.01792,-0.69045 1.45234,0.888 1.6401,2.89265 0.72385,4.23177 -1.22122,1.78485 -3.76105,1.98871 -5.44562,0.75726 -2.11985,-1.54965 -2.3394,-4.63138 -0.79067,-6.65947 1.87573,-2.45628 5.5028,-2.6913 7.87332,-0.82407 2.79358,2.20046 3.04396,6.37488 0.85748,9.08716 -2.52437,3.13145 -7.24741,3.39713 -10.30101,0.89089 -3.4697,-2.84774 -3.75065,-8.12026 -0.9243,-11.51486 3.17074,-3.80822 8.99335,-4.10442 12.72871,-0.9577 4.14697,3.49345 4.4584,9.8666 0.99112,13.94256"
       sodipodi:t0="0"
       sodipodi:argument="-18.091673"
       sodipodi:radius="10.303752"
       sodipodi:revolution="3"
       sodipodi:expansion="1"
       sodipodi:cy="127.19716"
       sodipodi:cx="-175.19518"
       id="path950"
       style="fill:none;fill-rule:evenodd;stroke:#ffffff;stroke-width:1.65479326;stroke-miterlimit:4;stroke-dasharray:none;filter:url(#filter3347)"
       sodipodi:type="spiral" />
  </g>
</svg>
